<?xml version="1.0" standalone="no"?>
<!DOCTYPE svg PUBLIC "-//W3C//DTD SVG 20010904//EN"
 "http://www.w3.org/TR/2001/REC-SVG-20010904/DTD/svg10.dtd">
<svg version="1.0" xmlns="http://www.w3.org/2000/svg"
 width="324.000000pt" height="296.000000pt" viewBox="0 0 324.000000 296.000000"
 preserveAspectRatio="xMidYMid meet">

<g transform="translate(0.000000,296.000000) scale(0.100000,-0.100000)"
fill="#000000" stroke="none">
<path d="M1890 2902 c-8 -3 -18 -10 -22 -16 -4 -6 -8 -129 -8 -273 0 -147 -4
-263 -9 -263 -5 0 -31 19 -57 43 -105 92 -291 202 -459 270 -162 66 -157 64
-143 27 19 -55 4 -194 -31 -290 -105 -286 -442 -629 -782 -797 -80 -39 -109
-59 -109 -72 0 -10 6 -21 12 -23 7 -3 214 -4 461 -2 l447 2 0 -74 0 -74 -505
0 c-476 0 -504 -1 -498 -18 3 -9 28 -64 54 -120 l49 -104 37 23 c21 12 39 24
41 25 2 1 -4 16 -13 33 -9 18 -13 37 -9 43 4 7 3 8 -4 4 -7 -4 -12 -1 -12 8 0
14 96 16 888 16 488 0 916 5 952 9 36 5 124 29 195 54 72 25 175 57 230 72 55
15 128 38 163 51 67 25 67 25 17 -46 -32 -44 -125 -222 -125 -238 0 -7 62 -42
74 -42 3 0 34 61 70 135 60 122 74 143 148 217 76 76 125 108 201 132 21 7 23
49 2 66 -13 11 -33 6 -118 -28 -56 -22 -133 -51 -172 -63 -38 -12 -117 -39
-174 -61 -57 -21 -108 -38 -112 -38 -5 0 -9 57 -9 126 0 107 -4 136 -25 200
-62 186 -174 337 -323 437 -83 56 -202 109 -202 90 0 -5 33 -44 73 -88 88 -97
123 -170 139 -289 12 -98 -1 -266 -25 -313 -8 -15 -17 -42 -20 -59 -5 -31 -42
-84 -59 -84 -4 0 -8 87 -8 193 0 256 -18 325 -126 494 l-34 53 -2 316 c-3 304
-4 317 -23 329 -11 7 -27 10 -35 7z m-568 -326 c49 -37 -32 -377 -109 -454 -7
-7 -13 -18 -13 -23 0 -10 -30 -53 -75 -108 -52 -64 -163 -175 -214 -213 -31
-24 -64 -51 -75 -60 -38 -34 -256 -131 -283 -126 -8 2 27 32 79 67 187 129
328 266 458 445 89 123 182 328 196 435 7 55 10 57 36 37z m660 -549 c32 -80
38 -148 38 -408 l0 -260 -32 3 -33 3 -3 353 c-1 193 1 352 5 352 5 0 16 -19
25 -43z m466 -467 c20 0 22 -5 22 -50 0 -50 -1 -51 -42 -69 -72 -31 -244 -81
-277 -81 -44 0 -40 22 15 89 62 76 172 129 239 115 11 -2 30 -4 43 -4z m-593
-126 l0 -69 -282 -3 -283 -2 0 68 c0 38 2 71 4 73 2 2 130 3 283 3 l278 -1 0
-69z"/>
<path d="M1695 2840 c-16 -4 -56 -21 -88 -40 -49 -28 -65 -32 -105 -27 -26 2
-56 8 -67 12 -11 4 0 -12 26 -37 61 -57 112 -73 183 -57 51 11 115 9 146 -5
14 -6 15 4 12 66 -2 40 -6 75 -7 76 -9 10 -74 17 -100 12z"/>
<path d="M1000 2608 c-6 -7 -20 -28 -30 -45 -24 -40 -43 -41 -107 -7 -37 19
-56 24 -83 19 -55 -10 -82 -32 -78 -63 3 -26 5 -27 69 -27 62 0 68 -2 107 -37
23 -21 53 -40 67 -44 41 -10 103 2 140 27 53 36 67 82 43 134 -21 46 -102 72
-128 43z"/>
<path d="M380 2145 c-19 -22 -4 -64 25 -71 14 -3 75 -4 136 -2 93 3 113 6 124
22 14 18 10 45 -9 58 -6 4 -68 8 -137 8 -100 0 -129 -3 -139 -15z"/>
<path d="M972 1214 c-13 -9 -22 -26 -22 -42 0 -69 69 -97 109 -46 27 34 26 50
-4 79 -28 29 -51 31 -83 9z"/>
<path d="M1550 1223 c-42 -15 -53 -70 -20 -103 28 -28 64 -25 89 6 27 34 26
50 -4 79 -24 25 -36 28 -65 18z"/>
<path d="M2228 1209 c-24 -14 -24 -71 0 -92 19 -18 59 -22 78 -9 21 13 32 47
23 69 -14 38 -64 54 -101 32z"/>
<path d="M370 1195 c0 -8 4 -15 10 -15 5 0 7 7 4 15 -4 8 -8 15 -10 15 -2 0
-4 -7 -4 -15z"/>
<path d="M560 1069 c-44 -20 -53 -21 -148 -3 -45 9 -82 -17 -82 -56 l0 -29
-111 -3 c-92 -2 -114 -6 -122 -20 -8 -12 -7 -21 2 -32 11 -14 42 -16 195 -16
193 0 206 -3 206 -47 0 -22 -11 -31 -64 -47 -15 -5 -16 -9 -6 -21 10 -12 54
-15 239 -17 l226 -3 3 -29 c2 -16 -2 -34 -8 -40 -7 -7 -116 -13 -343 -16
l-332 -5 -3 -24 c-7 -46 16 -51 218 -51 131 0 190 -4 198 -12 17 -17 15 -45
-5 -56 -10 -6 -14 -16 -10 -26 5 -13 21 -16 76 -16 113 0 164 -15 233 -71 94
-76 143 -82 237 -32 32 17 60 23 104 23 54 0 69 -5 130 -42 88 -53 144 -60
202 -24 83 53 119 66 181 66 45 0 73 -6 109 -25 95 -48 142 -42 221 26 71 62
98 72 206 77 82 4 100 8 116 26 37 40 122 159 118 164 -3 2 -23 -3 -46 -12
-61 -24 -116 -20 -188 14 -80 38 -132 39 -197 4 -88 -47 -197 -41 -231 11 -30
46 15 92 64 66 33 -18 89 -13 152 14 82 35 146 33 238 -6 l73 -30 60 15 c33 9
73 16 87 16 15 0 32 4 38 8 16 10 96 218 92 239 -1 10 -20 26 -41 37 -50 24
-89 16 -164 -34 -68 -46 -141 -64 -225 -54 -47 5 -70 15 -129 56 -52 36 -85
52 -116 56 -39 4 -43 2 -43 -16 0 -47 -73 -52 -90 -6 -14 37 -48 30 -135 -28
-76 -52 -80 -53 -159 -56 -87 -3 -83 -5 -202 76 -44 30 -55 33 -106 30 -56 -4
-63 -8 -165 -82 -38 -28 -105 -40 -168 -31 -41 7 -76 26 -164 90 -42 31 -47
31 -55 1 -3 -14 -15 -27 -26 -31 -26 -8 -60 11 -60 35 0 26 -23 25 -80 -1z
m819 -134 c25 -14 59 -25 80 -25 80 0 94 -81 17 -96 -43 -7 -80 1 -115 25 -49
34 -68 35 -136 2 -72 -35 -100 -38 -133 -15 -41 29 -17 84 36 84 15 0 36 6 47
14 62 42 142 46 204 11z m-285 -311 c24 -23 19 -51 -10 -71 -24 -15 -29 -15
-53 -2 -32 18 -38 45 -15 70 21 23 57 25 78 3z m476 -36 c24 -44 -13 -87 -64
-74 -65 16 -50 111 17 104 22 -2 36 -11 47 -30z"/>
<path d="M750 392 c0 -13 134 -114 216 -165 80 -48 219 -100 340 -127 318 -72
684 18 934 226 l82 69 -42 3 c-37 3 -51 -3 -118 -49 -120 -83 -196 -93 -302
-39 -23 12 -59 20 -88 20 -41 0 -59 -7 -111 -42 -49 -32 -74 -42 -116 -46 -79
-6 -118 4 -177 48 -46 35 -59 40 -105 40 -39 0 -68 -8 -105 -27 -91 -48 -175
-34 -281 47 -53 40 -127 64 -127 42z"/>
</g>
</svg>
